<?xml version="1.0" standalone="no"?>
<svg viewBox="0 0 200 200" xmlns="http://www.w3.org/2000/svg">
  <path fill="#E8DAFF" d="M38.6,-58.5C49.4,-53.1,57,-41.3,60.8,-28.9C64.6,-16.6,64.7,-3.6,62.1,8.4C59.5,20.4,54.3,31.4,46.5,40.2C38.8,49,28.5,55.4,16.5,61.2C4.6,66.9,-9,71.8,-23.8,71.7C-38.7,71.7,-54.9,66.6,-60.4,55.2C-66,43.7,-60.9,25.9,-60.2,10.5C-59.5,-4.8,-63.2,-17.7,-62.5,-32.4C-61.8,-47.2,-56.7,-63.8,-45.6,-69C-34.4,-74.2,-17.2,-67.9,-1.7,-65.4C13.9,-62.8,27.8,-63.9,38.6,-58.5Z" transform="translate(100 100)" />
</svg>