<?xml version="1.0" standalone="no"?>
<svg viewBox="0 0 200 200" xmlns="http://www.w3.org/2000/svg">
  <path fill="#FFD6E8" d="M50.3,-75.4C65.3,-68.5,77.9,-54.9,82.9,-39.3C87.8,-23.6,85,-5.9,76.3,6.5C67.5,18.9,52.7,25.9,43.3,38.4C33.8,50.9,29.7,68.9,18.8,78.9C7.9,89,-9.8,91.2,-22.1,83.7C-34.3,76.1,-41.3,58.9,-45.2,44.6C-49.2,30.3,-50.3,18.8,-57.1,5.1C-63.9,-8.6,-76.5,-24.7,-75.3,-37.3C-74,-49.9,-59,-59.1,-44.1,-66C-29.3,-73,-14.6,-77.7,1.5,-80C17.6,-82.3,35.2,-82.2,50.3,-75.4Z" transform="translate(100 100)" />
</svg>
